<svg width="114" height="32" viewBox="0 0 114 32" fill="none" xmlns="http://www.w3.org/2000/svg">
<path d="M91.5486 18.5566H82.9858C83.1579 19.3558 83.5452 19.9822 84.1691 20.4358C84.7715 20.8894 85.5245 21.1054 86.4281 21.1054C87.6544 21.1054 88.5796 20.6518 89.2035 19.7662L91.1183 20.8894C90.0641 22.4662 88.4935 23.2438 86.4066 23.2438C84.6639 23.2438 83.2655 22.7038 82.1683 21.6454C81.0925 20.5654 80.5547 19.2046 80.5547 17.563C80.5547 15.9646 81.0925 14.6254 82.1468 13.5238C83.201 12.4222 84.5564 11.8822 86.2345 11.8822C87.805 11.8822 89.0959 12.4438 90.1071 13.5454C91.1183 14.647 91.6346 16.0078 91.6346 17.5846C91.6346 17.8654 91.6131 18.1894 91.5486 18.5566ZM82.9643 16.6558H89.2895C89.1389 15.8134 88.7732 15.1438 88.2138 14.6686C87.676 14.215 87.009 13.999 86.213 13.999C85.3524 13.999 84.6424 14.2366 84.0615 14.7118C83.4806 15.187 83.1149 15.835 82.9643 16.6558Z" fill="#141513"/>
<path d="M76.2685 16.5478C76.7633 16.6558 77.1936 16.7854 77.5593 16.8934C78.0541 17.0662 78.4629 17.2606 78.7856 17.4982C79.6247 18.0814 80.055 18.9022 80.0335 19.9174C80.0335 20.9542 79.6247 21.775 78.8287 22.3582C78.0326 22.9414 77.0215 23.2438 75.8382 23.2438C73.6437 23.2438 72.1807 22.4014 71.4492 20.7166L73.4501 19.5502C73.8158 20.587 74.6118 21.1054 75.8382 21.1054C77.0645 21.1054 77.6669 20.695 77.6669 19.8958C77.6669 19.3126 76.9784 18.8374 75.623 18.5134C75.1067 18.3838 74.6764 18.2542 74.3537 18.1462C73.8588 17.9734 73.4501 17.779 73.1273 17.5414C72.2883 16.9582 71.858 16.1806 71.8795 15.187C71.8795 14.1934 72.2453 13.3942 72.9983 12.7894C73.7513 12.1846 74.6979 11.8822 75.8166 11.8822C77.6669 11.8822 79.0008 12.6382 79.7968 14.1286L77.839 15.2302C77.4733 14.4094 76.8063 13.999 75.8166 13.999C74.7624 13.999 74.2461 14.3878 74.2461 15.1438C74.2461 15.6838 74.913 16.159 76.2685 16.5478Z" fill="#141513"/>
<path d="M70.1712 22.9631H67.8477L67.866 12.0754H70.1896L70.1712 22.9631Z" fill="#141513"/>
<path d="M53.6154 22.9631H50.754L46.4941 7.84308H49.0974L52.26 19.6583L55.6808 7.84308H57.9613L61.3606 19.6583L63.6863 12.0754H66.2895L62.8666 22.9631H60.0052L56.8211 11.9255L53.6154 22.9631Z" fill="#141513"/>
<path d="M43.0323 13.6966V12.163H45.3558V22.963H43.0323V21.4078C42.1502 22.639 40.9023 23.2438 39.2672 23.2438C37.7828 23.2438 36.5349 22.7038 35.4807 21.6022C34.4265 20.5006 33.9102 19.1614 33.9102 17.563C33.9102 15.9646 34.4265 14.6254 35.4807 13.5238C36.5349 12.4222 37.7828 11.8822 39.2672 11.8822C40.9023 11.8822 42.1502 12.487 43.0323 13.6966ZM39.633 21.019C40.6011 21.019 41.4187 20.695 42.0641 20.047C42.7096 19.3774 43.0323 18.535 43.0323 17.563C43.0323 16.5694 42.7096 15.7486 42.0641 15.1006C41.4187 14.431 40.6011 14.107 39.633 14.107C38.6648 14.107 37.8473 14.431 37.2019 15.1006C36.5564 15.7486 36.2337 16.5694 36.2337 17.563C36.2337 18.535 36.5564 19.3774 37.2019 20.047C37.8473 20.695 38.6648 21.019 39.633 21.019Z" fill="#141513"/>
<path d="M33.4922 12.163V14.4094H30.8244V19.5934C30.8244 20.2198 31.0395 20.6302 31.4913 20.7814C31.814 20.8894 32.481 20.911 33.4922 20.8678V22.963C31.7065 23.179 30.4371 23.0278 29.6626 22.5094C28.8881 21.9694 28.5008 20.9974 28.5008 19.5934V14.4094H26.5215V12.163H28.5008V9.83018L30.8244 9.13898V12.163H33.4922Z" fill="#141513"/>
<path d="M23.1026 13.6966V12.163H25.4261V22.963H23.1026V21.4078C22.2205 22.639 20.9727 23.2438 19.3376 23.2438C17.8531 23.2438 16.6052 22.7038 15.551 21.6022C14.4968 20.5006 13.9805 19.1614 13.9805 17.563C13.9805 15.9646 14.4968 14.6254 15.551 13.5238C16.6052 12.4222 17.8531 11.8822 19.3376 11.8822C20.9727 11.8822 22.2205 12.487 23.1026 13.6966ZM19.7033 21.019C20.6715 21.019 21.489 20.695 22.1344 20.047C22.7799 19.3774 23.1026 18.535 23.1026 17.563C23.1026 16.5694 22.7799 15.7486 22.1344 15.1006C21.489 14.431 20.6715 14.107 19.7033 14.107C18.7352 14.107 17.9176 14.431 17.2722 15.1006C16.6267 15.7486 16.304 16.5694 16.304 17.563C16.304 18.535 16.6267 19.3774 17.2722 20.047C17.9176 20.695 18.7352 21.019 19.7033 21.019Z" fill="#141513"/>
<path d="M0 7.84308H5.91646C7.98185 7.84308 9.703 8.57748 11.0584 10.0247C12.4353 11.4719 13.1238 13.2647 13.1238 15.4031C13.1238 17.5199 12.4353 19.3127 11.0584 20.7815C9.703 22.2287 7.98185 22.9631 5.91646 22.9631H0V7.84308ZM2.47416 20.5871H5.91646C7.33641 20.5871 8.49819 20.0903 9.38028 19.1183C10.2839 18.1463 10.7357 16.8935 10.7357 15.4031C10.7357 13.8911 10.2839 12.6599 9.38028 11.6879C8.49819 10.7159 7.33641 10.2191 5.91646 10.2191H2.47416V20.5871Z" fill="#141513"/>
<path d="M68.9697 7.91583C69.1532 8.77398 69.8209 9.44432 70.6756 9.6286C69.8209 9.81287 69.1532 10.4832 68.9697 11.3414C68.7861 10.4832 68.1184 9.81287 67.2637 9.6286C68.1184 9.44432 68.7861 8.77398 68.9697 7.91583Z" fill="#141513"/>
<path fill-rule="evenodd" clip-rule="evenodd" d="M110.56 7C110.774 8.06469 111.554 8.89637 112.552 9.125C111.554 9.35363 110.774 10.1853 110.56 11.25C110.346 10.1853 109.566 9.35363 108.568 9.125C109.566 8.89637 110.346 8.06469 110.56 7ZM97.6113 15.5C97.6113 14.6198 98.3249 13.9062 99.2051 13.9062H111.954C112.834 13.9062 113.548 14.6198 113.548 15.5C113.548 16.3802 112.834 17.0938 111.954 17.0938H99.2051C98.3249 17.0938 97.6113 16.3802 97.6113 15.5ZM99.2051 8.0625C98.3249 8.0625 97.6113 8.77605 97.6113 9.65625C97.6113 10.5365 98.3249 11.25 99.2051 11.25H104.982C105.862 11.25 106.576 10.5365 106.576 9.65625C106.576 8.77605 105.862 8.0625 104.982 8.0625H99.2051ZM97.6113 21.3438C97.6113 20.4635 98.3249 19.75 99.2051 19.75H100.002C100.882 19.75 101.595 20.4635 101.595 21.3438C101.595 22.224 100.882 22.9375 100.002 22.9375H99.2051C98.3249 22.9375 97.6113 22.224 97.6113 21.3438ZM105.181 19.75C104.301 19.75 103.588 20.4635 103.588 21.3438C103.588 22.224 104.301 22.9375 105.181 22.9375H109.962C110.842 22.9375 111.556 22.224 111.556 21.3438C111.556 20.4635 110.842 19.75 109.962 19.75H105.181Z" fill="#3A7326"/>
</svg>
