<svg width="23" height="19" viewBox="0 0 23 19" fill="none" xmlns="http://www.w3.org/2000/svg">
<path fill-rule="evenodd" clip-rule="evenodd" d="M0.333008 1.7778C0.333008 1.16415 0.830469 0.666687 1.44412 0.666687H21.8886C22.5022 0.666687 22.9997 1.16415 22.9997 1.7778C22.9997 2.39145 22.5022 2.88891 21.8886 2.88891H1.44412C0.830469 2.88891 0.333008 2.39145 0.333008 1.7778ZM3.43434 9.7778C3.43434 9.16415 3.9318 8.66669 4.54545 8.66669H18.794C19.4077 8.66669 19.9051 9.16415 19.9051 9.7778C19.9051 10.3914 19.4077 10.8889 18.794 10.8889H4.54545C3.9318 10.8889 3.43434 10.3914 3.43434 9.7778ZM1.44412 16.6667C0.830469 16.6667 0.333008 17.1641 0.333008 17.7778C0.333008 18.3914 0.830469 18.8889 1.44412 18.8889H21.8886C22.5022 18.8889 22.9997 18.3914 22.9997 17.7778C22.9997 17.1641 22.5022 16.6667 21.8886 16.6667H1.44412Z" fill="#282B27"/>
</svg>
