<svg width="56" height="50" viewBox="0 0 56 50" fill="none" xmlns="http://www.w3.org/2000/svg">
<path fill-rule="evenodd" clip-rule="evenodd" d="M8.15829 0.198975C3.85254 0.198975 0.364258 3.68726 0.364258 7.993V25.0001C0.364258 26.1737 1.31565 27.1251 2.48926 27.1251C3.66286 27.1251 4.61426 26.1737 4.61426 25.0001V7.993C4.61426 6.03447 6.19975 4.44897 8.15829 4.44897H25.8749V47.6762C25.8749 48.8498 26.8263 49.8012 27.9999 49.8012H47.8415C52.1472 49.8012 55.6355 46.3129 55.6355 42.0072V7.993C55.6355 3.68726 52.1472 0.198975 47.8415 0.198975H8.15829ZM47.8415 45.5512H30.1249V4.44897H47.8415C49.8 4.44897 51.3855 6.03447 51.3855 7.993V42.0072C51.3855 43.9657 49.8 45.5512 47.8415 45.5512ZM34.3795 13.6618C34.3795 12.4882 35.3309 11.5368 36.5045 11.5368H45.008C46.1816 11.5368 47.133 12.4882 47.133 13.6618C47.133 14.8354 46.1816 15.7868 45.008 15.7868H36.5045C35.3309 15.7868 34.3795 14.8354 34.3795 13.6618ZM16.6618 31.3784H5.32397C4.15037 31.3784 3.19897 32.3298 3.19897 33.5034C3.19897 34.677 4.15037 35.6284 5.32397 35.6284H11.5316L0.986656 46.1734C0.156792 47.0033 0.156792 48.3487 0.986656 49.1786C1.81652 50.0085 3.162 50.0085 3.99186 49.1786L14.537 38.6334V44.8415C14.537 46.0151 15.4884 46.9665 16.662 46.9665C17.8356 46.9665 18.787 46.0151 18.787 44.8415V33.5034C18.787 33.1373 18.6944 32.7929 18.5314 32.4921C18.4785 32.3945 18.4174 32.3001 18.3481 32.2099C17.9596 31.7043 17.3489 31.3784 16.662 31.3784H16.6618ZM36.5045 22.875C35.3309 22.875 34.3795 23.8264 34.3795 25C34.3795 26.1736 35.3309 27.125 36.5045 27.125H45.008C46.1816 27.125 47.133 26.1736 47.133 25C47.133 23.8264 46.1816 22.875 45.008 22.875H36.5045ZM34.3795 36.3382C34.3795 35.1646 35.3309 34.2132 36.5045 34.2132H45.008C46.1816 34.2132 47.133 35.1646 47.133 36.3382C47.133 37.5118 46.1816 38.4632 45.008 38.4632H36.5045C35.3309 38.4632 34.3795 37.5118 34.3795 36.3382Z" fill="#3A7326"/>
</svg>
