<svg width="62" height="62" viewBox="0 0 62 62" fill="none" xmlns="http://www.w3.org/2000/svg">
<path fill-rule="evenodd" clip-rule="evenodd" d="M27.4587 5.49996C27.4587 5.10956 27.7766 4.79163 28.167 4.79163H33.8337C34.2241 4.79163 34.542 5.10956 34.542 5.49996V11.1666C34.542 11.557 34.2241 11.875 33.8337 11.875H28.167C27.7766 11.875 27.4587 11.557 27.4587 11.1666V5.49996ZM28.167 0.541626C25.4294 0.541626 23.2087 2.76235 23.2087 5.49996V6.20829H14.0003C9.69589 6.20829 6.20866 9.69552 6.20866 14V23.2083L5.50033 23.2083C2.76272 23.2083 0.541992 25.429 0.541992 28.1666V33.8333C0.541992 36.5709 2.76272 38.7916 5.50033 38.7916H6.20866V48C6.20866 52.3044 9.69589 55.7916 14.0003 55.7916H23.2087V56.5C23.2087 59.2376 25.4294 61.4583 28.167 61.4583H33.8337C36.5713 61.4583 38.792 59.2376 38.792 56.5V55.7916H48.0003C52.3048 55.7916 55.792 52.3044 55.792 48V38.7916H56.5003C59.2379 38.7916 61.4587 36.5709 61.4587 33.8333V28.1666C61.4587 25.429 59.2379 23.2083 56.5003 23.2083H55.792V14C55.792 9.69552 52.3048 6.20829 48.0003 6.20829H38.792V5.49996C38.792 2.76235 36.5713 0.541626 33.8337 0.541626H28.167ZM10.4587 48C10.4587 49.9572 12.0431 51.5416 14.0003 51.5416H23.2087V50.8333C23.2087 48.0957 25.4294 45.875 28.167 45.875H33.8337C36.5713 45.875 38.792 48.0957 38.792 50.8333V51.5416H48.0003C49.9576 51.5416 51.542 49.9572 51.542 48V38.7916H50.8337C48.0961 38.7916 45.8753 36.5709 45.8753 33.8333V28.1666C45.8753 25.429 48.0961 23.2083 50.8337 23.2083H51.542V14C51.542 12.0427 49.9576 10.4583 48.0003 10.4583H38.792V11.1666C38.792 13.9042 36.5713 16.125 33.8337 16.125H28.167C25.4294 16.125 23.2087 13.9042 23.2087 11.1666V10.4583H14.0003C12.0431 10.4583 10.4587 12.0427 10.4587 14V23.2083L11.167 23.2083C13.9046 23.2083 16.1253 25.429 16.1253 28.1666V33.8333C16.1253 36.5709 13.9046 38.7916 11.167 38.7916H10.4587V48ZM27.4587 50.8333C27.4587 50.4429 27.7766 50.125 28.167 50.125H33.8337C34.2241 50.125 34.542 50.4429 34.542 50.8333V56.5C34.542 56.8904 34.2241 57.2083 33.8337 57.2083H28.167C27.7766 57.2083 27.4587 56.8904 27.4587 56.5V50.8333ZM5.50033 27.4583C5.10993 27.4583 4.79199 27.7762 4.79199 28.1666V33.8333C4.79199 34.2237 5.10993 34.5416 5.50033 34.5416H11.167C11.5574 34.5416 11.8753 34.2237 11.8753 33.8333V28.1666C11.8753 27.7762 11.5574 27.4583 11.167 27.4583H5.50033ZM50.1253 28.1666C50.1253 27.7762 50.4433 27.4583 50.8337 27.4583H56.5003C56.8907 27.4583 57.2087 27.7762 57.2087 28.1666V33.8333C57.2087 34.2237 56.8907 34.5416 56.5003 34.5416H50.8337C50.4433 34.5416 50.1253 34.2237 50.1253 33.8333V28.1666ZM33.692 30.9999C33.692 32.347 32.6039 33.4819 31.2128 33.4819C29.8437 33.4819 28.7337 32.3719 28.7337 31.0028C28.7337 28.9874 30.3882 28.5353 31.182 28.5238C32.5811 28.5035 33.692 29.6369 33.692 30.9999Z" fill="#3A7326"/>
</svg>
