<svg width="56" height="56" viewBox="0 0 56 56" fill="none" xmlns="http://www.w3.org/2000/svg">
<path fill-rule="evenodd" clip-rule="evenodd" d="M51.8637 27.9858C52.6935 28.8156 52.6935 30.1611 51.8637 30.991L50.064 32.7907C49.2341 33.6205 47.8886 33.6205 47.0588 32.7907C46.2289 31.9608 46.2289 30.6153 47.0588 29.7855L48.8584 27.9858C49.6883 27.1559 51.0338 27.1559 51.8637 27.9858Z" fill="#3A7326"/>
<path fill-rule="evenodd" clip-rule="evenodd" d="M32.7905 47.0589C33.6204 47.8887 33.6204 49.2342 32.7905 50.0641L30.9909 51.8638C30.161 52.6936 28.8155 52.6936 27.9857 51.8638C27.1558 51.0339 27.1558 49.6884 27.9857 48.8586L29.7853 47.0589C30.6152 46.229 31.9607 46.229 32.7905 47.0589Z" fill="#3A7326"/>
<path fill-rule="evenodd" clip-rule="evenodd" d="M39.9247 23.0405C41.0983 23.0405 42.0497 23.9919 42.0497 25.1655V27.7106C42.0497 28.8842 41.0983 29.8356 39.9247 29.8356C38.751 29.8356 37.7997 28.8842 37.7997 27.7106V25.1655C37.7997 23.9919 38.751 23.0405 39.9247 23.0405Z" fill="#3A7326"/>
<path fill-rule="evenodd" clip-rule="evenodd" d="M27.9857 27.9858C28.8155 27.1559 30.161 27.1559 30.9909 27.9858L32.7905 29.7855C33.6204 30.6153 33.6204 31.9608 32.7905 32.7907C31.9607 33.6205 30.6152 33.6205 29.7853 32.7907L27.9857 30.991C27.1558 30.1611 27.1558 28.8156 27.9857 27.9858Z" fill="#3A7326"/>
<path fill-rule="evenodd" clip-rule="evenodd" d="M23.0404 39.9248C23.0404 38.7512 23.9918 37.7998 25.1654 37.7998H27.7105C28.8841 37.7998 29.8355 38.7512 29.8355 39.9248C29.8355 41.0984 28.8841 42.0498 27.7105 42.0498H25.1654C23.9918 42.0498 23.0404 41.0984 23.0404 39.9248Z" fill="#3A7326"/>
<path fill-rule="evenodd" clip-rule="evenodd" d="M36.7227 36.7227C37.7118 35.7336 39.1749 35.3882 40.502 35.8306L53.1099 40.0332C54.4782 40.4893 55.4557 41.7001 55.6131 43.1338C55.7706 44.5674 55.079 45.9615 53.8423 46.7036L49.5974 49.2506C49.4551 49.3359 49.336 49.4551 49.2506 49.5974L46.7037 53.8422C45.9616 55.079 44.5675 55.7706 43.1338 55.6133C41.7001 55.4559 40.4893 54.4783 40.0332 53.11L35.8305 40.5021C35.3881 39.175 35.7335 37.7119 36.7227 36.7227ZM40.2146 40.2146L50.6174 43.6823L47.4109 45.6062C46.6703 46.0505 46.0505 46.6703 45.6062 47.4108L43.6822 50.6175L40.2146 40.2146Z" fill="#3A7326"/>
<path fill-rule="evenodd" clip-rule="evenodd" d="M46.3974 46.3975C47.2272 45.5676 48.5727 45.5676 49.4026 46.3975L54.2082 51.2031C55.038 52.0329 55.038 53.3784 54.2082 54.2083C53.3783 55.0382 52.0328 55.0382 51.203 54.2083L46.3974 49.4027C45.5675 48.5728 45.5675 47.2274 46.3974 46.3975Z" fill="#3A7326"/>
<path fill-rule="evenodd" clip-rule="evenodd" d="M0.364258 13.8274C0.364258 12.6538 1.31565 11.7024 2.48926 11.7024H53.5105C54.6841 11.7024 55.6355 12.6538 55.6355 13.8274C55.6355 15.001 54.6841 15.9524 53.5105 15.9524H2.48926C1.31565 15.9524 0.364258 15.001 0.364258 13.8274Z" fill="#3A7326"/>
<path fill-rule="evenodd" clip-rule="evenodd" d="M10.9928 4.61438C7.47003 4.61438 4.61426 7.47015 4.61426 10.9929V33.669C4.61426 37.1918 7.47003 40.0476 10.9928 40.0476H13.8273C15.0009 40.0476 15.9523 40.999 15.9523 42.1726C15.9523 43.3462 15.0009 44.2976 13.8273 44.2976H10.9928C5.12282 44.2976 0.364258 39.539 0.364258 33.669V10.9929C0.364258 5.12294 5.12282 0.36438 10.9928 0.36438H45.007C50.8769 0.36438 55.6355 5.12294 55.6355 10.9929V19.4965C55.6355 20.6701 54.6841 21.6215 53.5105 21.6215C52.3369 21.6215 51.3855 20.6701 51.3855 19.4965V10.9929C51.3855 7.47015 48.5297 4.61438 45.007 4.61438H10.9928Z" fill="#3A7326"/>
</svg>
