<svg width="19" height="18" viewBox="0 0 19 18" fill="none" xmlns="http://www.w3.org/2000/svg">
<path fill-rule="evenodd" clip-rule="evenodd" d="M15.8333 0.666748C16.1023 1.91932 17.0807 2.89777 18.3333 3.16675C17.0807 3.43572 16.1023 4.41418 15.8333 5.66675C15.5643 4.41418 14.5859 3.43572 13.3333 3.16675C14.5859 2.89777 15.5643 1.91932 15.8333 0.666748ZM7.56 0.833417C8.31958 4.37068 11.0827 7.13383 14.62 7.89342C11.0827 8.653 8.31958 11.4162 7.56 14.9534C6.80042 11.4162 4.03726 8.653 0.5 7.89342C4.03726 7.13383 6.80042 4.37068 7.56 0.833417ZM18.3333 14.0001C16.6632 13.6414 15.3586 12.3368 15 10.6667C14.6413 12.3368 13.3367 13.6414 11.6666 14.0001C13.3367 14.3587 14.6413 15.6633 15 17.3334C15.3586 15.6633 16.6632 14.3587 18.3333 14.0001Z" fill="#3A7326"/>
</svg>
