<svg width="332" height="73" viewBox="0 0 332 73" fill="none" xmlns="http://www.w3.org/2000/svg">
<rect x="0.5" y="0.5" width="331" height="72" rx="25.2409" fill="white"/>
<rect x="0.5" y="0.5" width="331" height="72" rx="25.2409" stroke="#C1C5BF"/>
<rect x="64.6387" y="19.8325" width="150.584" height="12.8704" rx="6.43522" fill="#E0E2DE"/>
<rect x="65" y="43" width="242" height="10" rx="5" fill="#E0E2DE"/>
<path d="M33.5165 25.6826C34.662 31.0173 38.8292 35.1844 44.1639 36.33C38.8292 37.4755 34.662 41.6427 33.5165 46.9773C32.371 41.6427 28.2038 37.4755 22.8691 36.33C28.2038 35.1844 32.371 31.0173 33.5165 25.6826Z" fill="#55A938"/>
<path d="M46.4448 41.7124C47.0175 44.3797 49.1011 46.4633 51.7685 47.0361C49.1011 47.6089 47.0175 49.6924 46.4448 52.3598C45.872 49.6924 43.7884 47.6089 41.1211 47.0361C43.7884 46.4633 45.872 44.3797 46.4448 41.7124Z" fill="#55A938"/>
<path d="M44.1632 21.1196C44.4905 22.6438 45.6811 23.8344 47.2053 24.1617C45.6811 24.489 44.4905 25.6797 44.1632 27.2038C43.8359 25.6797 42.6453 24.489 41.1211 24.1617C42.6453 23.8344 43.8359 22.6438 44.1632 21.1196Z" fill="#55A938"/>
</svg>
